<?xml version="1.0" encoding="utf-8"?>
<svg width="61" height="38" viewBox="0 0 61 38" xmlns="http://www.w3.org/2000/svg" xmlns:xlink="http://www.w3.org/1999/xlink">
<svg width="20" height="15" fill="none" viewBox="0 0 20 15" id="creditcardsvg" x="21" xmlns="http://www.w3.org/2000/svg">
<path d="M18.125 0H1.875A1.88 1.88 0 0 0 0 1.875v11.25A1.88 1.88 0 0 0 1.875 15h16.25A1.88 1.88 0 0 0 20 13.125V1.875A1.88 1.88 0 0 0 18.125 0ZM1.875 1.25h16.25c.339 0 .625.286.625.625V3.75H1.25V1.875c0-.339.286-.625.625-.625Zm16.25 12.5H1.875a.633.633 0 0 1-.625-.625V7.5h17.5v5.625a.633.633 0 0 1-.625.625ZM2.5 10h1.25v2.5H2.5V10ZM5 10h1.25v2.5H5V10Zm2.5 0h1.25v2.5H7.5V10Z" fill="#F5F5F5"/></svg>
<svg width="20" height="18" fill="none" viewBox="0 0 20 18" id="displaysvg" y="20" xmlns="http://www.w3.org/2000/svg">
<path d="M0 .25v12.5h20V.25H0ZM18.75 11.5H1.25v-10h17.5v10ZM13.125 14h-6.25l-.625 2.5L5 17.75h10l-1.25-1.25-.625-2.5Z" fill="#F5F5F5"/></svg>
<svg width="20" height="20" fill="none" viewBox="0 0 20 20" id="locationsvg" x="41" xmlns="http://www.w3.org/2000/svg">
<path d="M10 0a6.25 6.25 0 0 0-6.25 6.25C3.75 12.5 10 20 10 20s6.25-7.5 6.25-13.75A6.25 6.25 0 0 0 10 0Zm0 10a3.75 3.75 0 1 1 0-7.5 3.75 3.75 0 0 1 0 7.5Z" fill="#F5F5F5"/></svg>
<svg width="21" height="20" fill="none" viewBox="0 0 21 20" id="userssvg" xmlns="http://www.w3.org/2000/svg"><g clip-path="url(#da)" fill="#F5F5F5">
<path d="M13.445 15.051v-1.03c1.235-.776 2.241-2.711 2.241-4.645 0-3.107 0-5.625-3.361-5.625S8.964 6.269 8.964 9.376c0 1.935 1.006 3.869 2.24 4.645v1.03c-3.8.347-6.722 2.43-6.722 4.949h15.686c0-2.519-2.922-4.602-6.723-4.949Z"/><path d="M5.728 15.534c.968-.707 2.172-1.243 3.498-1.57a7.164 7.164 0 0 1-.709-1.153 7.815 7.815 0 0 1-.814-3.436c0-1.68 0-3.268.536-4.566.52-1.26 1.455-2.04 2.787-2.333C10.73.982 9.942 0 7.843 0 4.482 0 4.482 2.518 4.482 5.625c0 1.935 1.007 3.87 2.24 4.645v1.03C2.923 11.649 0 13.73 0 16.25h4.885a7.33 7.33 0 0 1 .843-.717Z"/></g><defs><clipPath id="da"><path fill="#fff" d="M0 0h20.168v20H0z"/></clipPath></defs></svg></svg>